<svg xmlns="http://www.w3.org/2000/svg" width="93.082" height="17.874" viewBox="0 0 93.082 17.874"><defs><style>.a{font-size:12px;font-family:Inter-Regular, Inter;letter-spacing:0.015em;}</style></defs><g transform="translate(-382 -296.331)"><g transform="translate(457.797 296.331)"><path d="M10.979,8a2.979,2.979,0,1,0,2.979,2.979A2.979,2.979,0,0,0,10.979,8Zm0,4.468a1.489,1.489,0,1,1,1.489-1.489A1.489,1.489,0,0,1,10.979,12.468Z" transform="translate(-1.735 -2.042)"/><path d="M16.166,10.352l-.331-.191a6.777,6.777,0,0,0,0-2.45l.331-.191a2.235,2.235,0,1,0-2.234-3.873l-.331.191a6.686,6.686,0,0,0-2.122-1.223V2.234a2.234,2.234,0,0,0-4.468,0v.382A6.686,6.686,0,0,0,4.889,3.842l-.333-.193A2.235,2.235,0,0,0,2.322,7.522l.331.191a6.777,6.777,0,0,0,0,2.45l-.331.191a2.235,2.235,0,0,0,2.234,3.873l.331-.191A6.686,6.686,0,0,0,7.01,15.258v.382a2.234,2.234,0,0,0,4.468,0v-.382A6.686,6.686,0,0,0,13.6,14.032l.333.192a2.235,2.235,0,1,0,2.234-3.873Zm-1.9-2.812a5.249,5.249,0,0,1,0,2.793.745.745,0,0,0,.346.844l.807.466a.745.745,0,1,1-.745,1.291l-.809-.468a.745.745,0,0,0-.9.123,5.2,5.2,0,0,1-2.415,1.4.745.745,0,0,0-.559.722v.933a.745.745,0,0,1-1.489,0v-.932a.745.745,0,0,0-.559-.722,5.2,5.2,0,0,1-2.414-1.4.745.745,0,0,0-.9-.123l-.807.467a.745.745,0,1,1-.745-1.29l.807-.466a.745.745,0,0,0,.346-.844,5.249,5.249,0,0,1,0-2.793A.745.745,0,0,0,3.874,6.7l-.807-.466A.745.745,0,0,1,3.812,4.94l.809.468a.745.745,0,0,0,.9-.12,5.2,5.2,0,0,1,2.415-1.4A.745.745,0,0,0,8.5,3.167V2.234a.745.745,0,0,1,1.489,0v.932a.745.745,0,0,0,.559.722,5.2,5.2,0,0,1,2.415,1.4.745.745,0,0,0,.9.123l.807-.467a.745.745,0,1,1,.745,1.29l-.807.466a.745.745,0,0,0-.345.841Z" transform="translate(0 0)"/></g><text class="a" transform="translate(382 310)"><tspan x="0" y="0">Pengaturan</tspan></text></g></svg>