<svg id="Layer_1" data-name="Layer 1" xmlns="http://www.w3.org/2000/svg" viewBox="0 0 100 100"><defs><style>.cls-1{fill:#231f20;}</style></defs><title>details</title><path d="M62.24,76.8H23.5A14.18,14.18,0,0,1,9.33,62.63V23.89A14.18,14.18,0,0,1,23.5,9.72H62.24A14.18,14.18,0,0,1,76.41,23.89V62.63A14.18,14.18,0,0,1,62.24,76.8ZM23.5,19.08a4.81,4.81,0,0,0-4.81,4.81V62.63a4.81,4.81,0,0,0,4.81,4.81H62.24a4.82,4.82,0,0,0,4.81-4.81V23.89a4.82,4.82,0,0,0-4.81-4.81Z"/><path d="M83.62,90.28H31.75a3.48,3.48,0,0,1-3.48-3.48V84.39a3.47,3.47,0,0,1,3.48-3.47H74.26a7.05,7.05,0,0,0,7-7V31.36a3.47,3.47,0,0,1,3.47-3.48h2.41a3.48,3.48,0,0,1,3.48,3.48V83.23A7.05,7.05,0,0,1,83.62,90.28Z"/><rect class="cls-1" x="26.17" y="30.11" width="6.63" height="4.68"/><rect class="cls-1" x="26.17" y="40.92" width="6.63" height="4.68"/><rect class="cls-1" x="26.17" y="51.73" width="6.63" height="4.68"/></svg>