<svg id="Layer_1" data-name="Layer 1" xmlns="http://www.w3.org/2000/svg" viewBox="0 0 100 100"><defs><style>.cls-1{fill:#4c9f70;}</style></defs><title>menuhoversvg</title><path class="cls-1" d="M37.17,47.76H19.73A10.47,10.47,0,0,1,9.27,37.3V19.86A10.48,10.48,0,0,1,19.73,9.39H37.17A10.48,10.48,0,0,1,47.63,19.86V37.3A10.47,10.47,0,0,1,37.17,47.76ZM19.73,15.37a4.49,4.49,0,0,0-4.48,4.49V37.3a4.49,4.49,0,0,0,4.48,4.48H37.17a4.49,4.49,0,0,0,4.48-4.48V19.86a4.49,4.49,0,0,0-4.48-4.49Z"/><path class="cls-1" d="M37.17,90.61H19.73A10.48,10.48,0,0,1,9.27,80.14V62.71A10.48,10.48,0,0,1,19.73,52.24H37.17A10.48,10.48,0,0,1,47.63,62.71V80.14A10.48,10.48,0,0,1,37.17,90.61ZM19.73,58.22a4.49,4.49,0,0,0-4.48,4.49V80.14a4.49,4.49,0,0,0,4.48,4.49H37.17a4.49,4.49,0,0,0,4.48-4.49V62.71a4.49,4.49,0,0,0-4.48-4.49Z"/><path class="cls-1" d="M80.27,90.61H62.83A10.49,10.49,0,0,1,52.36,80.14V62.71A10.49,10.49,0,0,1,62.83,52.24H80.27A10.48,10.48,0,0,1,90.73,62.71V80.14A10.48,10.48,0,0,1,80.27,90.61ZM62.83,58.22a4.49,4.49,0,0,0-4.49,4.49V80.14a4.49,4.49,0,0,0,4.49,4.49H80.27a4.49,4.49,0,0,0,4.48-4.49V62.71a4.49,4.49,0,0,0-4.48-4.49Z"/><path class="cls-1" d="M84.78,24.25H74.05V13.52a1.79,1.79,0,0,0-1.79-1.79H70.84a1.79,1.79,0,0,0-1.79,1.79V24.25H58.31A1.79,1.79,0,0,0,56.52,26v1.42a1.79,1.79,0,0,0,1.79,1.79H69.05V40a1.79,1.79,0,0,0,1.79,1.79h1.42A1.79,1.79,0,0,0,74.05,40V29.25H84.78a1.79,1.79,0,0,0,1.79-1.79V26A1.79,1.79,0,0,0,84.78,24.25Z"/></svg>