<svg id="Layer_1" data-name="Layer 1" xmlns="http://www.w3.org/2000/svg" viewBox="0 0 100 100"><defs><style>.cls-1{fill:#030403;}</style></defs><title>menu</title><path class="cls-1" d="M36.44,47H19A10.47,10.47,0,0,1,8.54,36.57V19.13A10.47,10.47,0,0,1,19,8.67H36.44A10.47,10.47,0,0,1,46.9,19.13V36.57A10.47,10.47,0,0,1,36.44,47ZM19,14.65a4.49,4.49,0,0,0-4.48,4.48V36.57A4.49,4.49,0,0,0,19,41.05H36.44a4.49,4.49,0,0,0,4.48-4.48V19.13a4.49,4.49,0,0,0-4.48-4.48Z"/><path class="cls-1" d="M79.54,47H62.1A10.48,10.48,0,0,1,51.63,36.57V19.13A10.48,10.48,0,0,1,62.1,8.67H79.54A10.47,10.47,0,0,1,90,19.13V36.57A10.47,10.47,0,0,1,79.54,47ZM62.1,14.65a4.49,4.49,0,0,0-4.49,4.48V36.57a4.49,4.49,0,0,0,4.49,4.48H79.54A4.49,4.49,0,0,0,84,36.57V19.13a4.49,4.49,0,0,0-4.48-4.48Z"/><path class="cls-1" d="M36.44,89.88H19A10.48,10.48,0,0,1,8.54,79.42V62A10.47,10.47,0,0,1,19,51.52H36.44A10.47,10.47,0,0,1,46.9,62V79.42A10.48,10.48,0,0,1,36.44,89.88ZM19,57.49A4.49,4.49,0,0,0,14.52,62V79.42A4.49,4.49,0,0,0,19,83.9H36.44a4.49,4.49,0,0,0,4.48-4.48V62a4.49,4.49,0,0,0-4.48-4.49Z"/><path class="cls-1" d="M79.54,89.88H62.1A10.48,10.48,0,0,1,51.63,79.42V62A10.48,10.48,0,0,1,62.1,51.52H79.54A10.47,10.47,0,0,1,90,62V79.42A10.48,10.48,0,0,1,79.54,89.88ZM62.1,57.49A4.5,4.5,0,0,0,57.61,62V79.42A4.49,4.49,0,0,0,62.1,83.9H79.54A4.49,4.49,0,0,0,84,79.42V62a4.49,4.49,0,0,0-4.48-4.49Z"/></svg>