<svg id="Layer_1" data-name="Layer 1" xmlns="http://www.w3.org/2000/svg" viewBox="0 0 100 100"><defs><style>.cls-1{fill:#231f20;}</style></defs><title>message</title><path class="cls-1" d="M52.13,92,33.57,73.34H25.41a9.59,9.59,0,0,1-9.57-9.58V22.29a9.59,9.59,0,0,1,9.57-9.58H78.92a9.59,9.59,0,0,1,9.58,9.58V63.76a9.59,9.59,0,0,1-9.58,9.58H71.18ZM25.41,20.59a1.7,1.7,0,0,0-1.69,1.7V63.76a1.7,1.7,0,0,0,1.69,1.7H36.85L52.2,80.92,68,65.46h11a1.7,1.7,0,0,0,1.7-1.7V22.29a1.7,1.7,0,0,0-1.7-1.7Z"/><rect class="cls-1" x="32.84" y="29.4" width="20.35" height="5.25"/><rect class="cls-1" x="32.84" y="40.24" width="35.62" height="5.25"/><rect class="cls-1" x="32.84" y="50.41" width="35.62" height="5.25"/></svg>