<svg id="Layer_1" data-name="Layer 1" xmlns="http://www.w3.org/2000/svg" viewBox="0 0 70.09 70.09"><defs><style>.cls-1{fill:#439565;}</style></defs><title>notifhover</title><path class="cls-1" d="M79.69,66.35l4.62-19.19a25.89,25.89,0,0,0-6.92-24.55h0A25.89,25.89,0,0,0,52.84,15.7L33.65,20.31A24.34,24.34,0,0,0,20.74,59.7,14.14,14.14,0,0,0,40.3,79.26,24.33,24.33,0,0,0,79.69,66.35ZM25.9,74.1a9.48,9.48,0,0,1-1.79-10.84L36.75,75.9A9.5,9.5,0,0,1,25.9,74.1Zm35,4A18,18,0,0,1,43.12,73.5L26.5,56.88a18.18,18.18,0,0,1,8.6-30.53l19.19-4.62a19.87,19.87,0,0,1,24,24L73.65,64.9A18,18,0,0,1,60.91,78.14Z" transform="translate(-14.96 -14.96)"/></svg>