<svg id="Layer_1" data-name="Layer 1" xmlns="http://www.w3.org/2000/svg" viewBox="0 0 100 100"><defs><style>.cls-1{fill:#231f20;}</style></defs><title>notif</title><path class="cls-1" d="M82.55,40.57,72.25,23.74A25.9,25.9,0,0,0,50,11.26h0A25.93,25.93,0,0,0,27.75,23.73L17.45,40.57a24.34,24.34,0,0,0,18.72,37,14.14,14.14,0,0,0,27.66,0,24.33,24.33,0,0,0,18.72-37ZM50,84.08a9.49,9.49,0,0,1-8.94-6.4H58.94A9.47,9.47,0,0,1,50,84.08Zm27.61-21.9a18,18,0,0,1-15.86,9.3H38.25A18.19,18.19,0,0,1,22.74,43.81L33,27A19.89,19.89,0,0,1,67,27l10.3,16.84A18,18,0,0,1,77.61,62.18Z"/></svg>